<svg xmlns="http://www.w3.org/2000/svg" xmlns:xlink="http://www.w3.org/1999/xlink" style="margin: auto;  display: block;" width="261px" height="261px" viewBox="0 0 100 100" preserveAspectRatio="xMidYMid">
<g transform="translate(50 50)">
<g>
<animateTransform attributeName="transform" type="rotate" values="0;16.363636363636363" keyTimes="0;1" dur="0.28328611898017s" repeatCount="indefinite"></animateTransform><path d="M21.424285285628553 -21 L29.424285285628553 -21 L29.424285285628553 21 L21.424285285628553 21 A30 30 0 0 1 26.472834889943087 -14.113433773884092 L26.472834889943087 -14.113433773884092 L34.14877867885907 -11.859573319152654 L22.31601129151902 28.439131572656233 L14.64006750260304 26.185271117924795 A30 30 0 0 1 29.37671285148566 -6.083481079230651 L29.37671285148566 -6.083481079230651 L36.10674111413511 -1.7583545395858708 L13.399826781000012 33.57429383932373 L6.669798518350563 29.249167299678952 A30 30 0 0 1 29.900664247839305 2.43931907260699 L29.900664247839305 2.43931907260699 L35.139550119401584 8.485315667441057 L3.398067996522749 35.98946649314303 L-1.840817875039532 29.94346989830896 A30 30 0 0 1 28.002241652930394 10.764500100371134 L28.002241652930394 10.764500100371134 L31.325561756945486 18.04155606320728 L-6.878982047944287 35.48898660928651 L-10.202302151959378 28.211930646450362 A30 30 0 0 1 23.835243975044534 18.21760534895032 L23.835243975044534 18.21760534895032 L24.973762681230816 26.13617688399778 L-16.598737877768354 32.113400091475754 L-17.737256583954636 24.194828556428295 A30 30 0 0 1 17.73725658395464 24.19482855642829 L17.73725658395464 24.19482855642829 L16.59873787776836 32.113400091475754 L-24.97376268123081 26.136176883997784 L-23.83524397504453 18.217605348950322 A30 30 0 0 1 10.202302151959382 28.211930646450362 L10.202302151959382 28.211930646450362 L6.878982047944291 35.48898660928651 L-31.325561756945486 18.04155606320728 L-28.002241652930394 10.764500100371134 A30 30 0 0 1 1.8408178750395359 29.94346989830896 L1.8408178750395359 29.94346989830896 L-3.398067996522744 35.98946649314303 L-35.139550119401584 8.485315667441064 L-29.900664247839305 2.439319072606997 A30 30 0 0 1 -6.66979851835056 29.249167299678955 L-6.66979851835056 29.249167299678955 L-13.399826781000009 33.57429383932374 L-36.10674111413511 -1.7583545395858593 L-29.376712851485664 -6.0834810792306415 A30 30 0 0 1 -14.640067502603042 26.185271117924792 L-14.640067502603042 26.185271117924792 L-22.316011291519022 28.43913157265623 L-34.14877867885907 -11.859573319152652 L-26.472834889943087 -14.11343377388409 A30 30 0 0 1 -21.424285285628553 21 L-21.424285285628553 21 L-29.424285285628553 21 L-29.424285285628557 -20.999999999999993 L-21.424285285628557 -20.999999999999993 A30 30 0 0 1 -26.472834889943083 14.113433773884097 L-26.472834889943083 14.113433773884097 L-34.14877867885906 11.859573319152659 L-22.316011291519015 -28.439131572656233 L-14.640067502603037 -26.185271117924795 A30 30 0 0 1 -29.37671285148566 6.083481079230649 L-29.37671285148566 6.083481079230649 L-36.10674111413511 1.7583545395858682 L-13.399826781000016 -33.57429383932373 L-6.669798518350566 -29.249167299678952 A30 30 0 0 1 -29.900664247839305 -2.4393190726069895 L-29.900664247839305 -2.4393190726069895 L-35.13955011940159 -8.485315667441055 L-3.3980679965227534 -35.98946649314303 L1.8408178750395283 -29.94346989830896 A30 30 0 0 1 -28.00224165293039 -10.764500100371139 L-28.00224165293039 -10.764500100371139 L-31.32556175694548 -18.041556063207288 L6.878982047944298 -35.488986609286506 L10.202302151959387 -28.21193064645036 A30 30 0 0 1 -23.835243975044534 -18.217605348950315 L-23.835243975044534 -18.217605348950315 L-24.973762681230813 -26.136176883997777 L16.59873787776836 -32.11340009147575 L17.73725658395464 -24.194828556428288 A30 30 0 0 1 -17.73725658395465 -24.19482855642828 L-17.73725658395465 -24.19482855642828 L-16.59873787776837 -32.11340009147574 L24.973762681230816 -26.136176883997777 L23.835243975044538 -18.217605348950315 A30 30 0 0 1 -10.202302151959396 -28.211930646450355 L-10.202302151959396 -28.211930646450355 L-6.878982047944307 -35.488986609286506 L31.325561756945483 -18.041556063207285 L28.002241652930394 -10.764500100371137 A30 30 0 0 1 -1.8408178750395394 -29.94346989830896 L-1.8408178750395394 -29.94346989830896 L3.3980679965227423 -35.98946649314303 L35.13955011940159 -8.48531566744104 L29.90066424783931 -2.439319072606974 A30 30 0 0 1 6.669798518350556 -29.249167299678955 L6.669798518350556 -29.249167299678955 L13.399826781000005 -33.57429383932374 L36.106741114135104 1.7583545395858833 L29.376712851485657 6.083481079230664 A30 30 0 0 1 14.640067502603028 -26.185271117924803 L14.640067502603028 -26.185271117924803 L22.316011291519008 -28.43913157265624 L34.14877867885906 11.859573319152659 L26.47283488994308 14.113433773884099 A30 30 0 0 1 21.42428528562854 -21.00000000000001 M0 -23A23 23 0 1 0 0 23 A23 23 0 1 0 0 -23" fill="#1d3f72"></path></g></g>
</svg>